<?xml version="1.0" encoding="UTF-8" standalone="no"?>
<!DOCTYPE svg PUBLIC "-//W3C//DTD SVG 1.1//EN" "http://www.w3.org/Graphics/SVG/1.1/DTD/svg11.dtd">
<svg width="100%" height="100%" viewBox="0 0 120 120" version="1.1" xmlns="http://www.w3.org/2000/svg" xmlns:xlink="http://www.w3.org/1999/xlink" xml:space="preserve" xmlns:serif="http://www.serif.com/" style="fill-rule:evenodd;clip-rule:evenodd;">
    <g id="Regular-S" transform="matrix(1,0,0,1,14.0668,94.7696)">
        <path d="M28.32,-71.289L28.32,-18.75C28.32,-10.4 32.373,-6.299 40.576,-6.299L76.221,-6.299C84.424,-6.299 88.525,-10.449 88.525,-18.75L88.525,-48.926C88.525,-54.248 87.451,-57.617 84.326,-60.84L66.016,-79.541C63.037,-82.617 59.473,-83.74 54.834,-83.74L40.576,-83.74C32.373,-83.74 28.32,-79.59 28.32,-71.289ZM35.352,-18.848L35.352,-71.191C35.352,-74.707 37.256,-76.709 40.967,-76.709L57.568,-76.709L57.568,-57.861C57.568,-53.223 59.863,-50.928 64.453,-50.928L81.445,-50.928L81.445,-18.848C81.445,-15.332 79.541,-13.33 75.879,-13.33L40.918,-13.33C37.256,-13.33 35.352,-15.332 35.352,-18.848ZM63.867,-58.935L63.867,-73.486L79.736,-57.227L65.576,-57.227C64.356,-57.227 63.867,-57.715 63.867,-58.935Z" style="fill:none;fill-rule:nonzero;stroke:black;stroke-width:0.5px;"/>
        <path d="M9.766,0.684C9.766,9.033 13.818,13.135 22.022,13.135L57.666,13.135C65.869,13.135 69.971,8.984 69.971,0.684L69.971,-28.467C69.971,-33.887 69.385,-36.182 66.016,-39.648L45.752,-60.352C42.578,-63.623 39.941,-64.307 35.254,-64.307L22.022,-64.307C13.818,-64.307 9.766,-60.156 9.766,-51.856L9.766,0.684Z" style="fill:none;fill-rule:nonzero;stroke:black;stroke-width:0.5px;"/>
        <path d="M16.797,0.586L16.797,-51.758C16.797,-55.273 18.701,-57.275 22.412,-57.275L34.082,-57.275L34.082,-35.596C34.082,-30.469 36.67,-27.93 41.748,-27.93L62.891,-27.93L62.891,0.586C62.891,4.102 60.986,6.104 57.324,6.104L22.363,6.104C18.701,6.104 16.797,4.102 16.797,0.586ZM42.578,-34.473C41.211,-34.473 40.625,-35.059 40.625,-36.426L40.625,-55.908L61.572,-34.473L42.578,-34.473Z" style="fill:none;fill-rule:nonzero;stroke:black;stroke-width:0.5px;"/>
        <g transform="matrix(1,0,0,1,-14.0668,-94.7696)">
            <path d="M42.387,30.463L42.387,37.494L36.479,37.494C32.768,37.494 30.864,39.496 30.864,43.012L30.864,95.356C30.864,98.871 32.768,100.873 36.43,100.873L71.391,100.873C75.053,100.873 76.957,98.871 76.957,95.356L76.957,88.471L84.037,88.471L84.037,95.453C84.037,103.754 79.936,107.904 71.733,107.904L36.088,107.904C27.885,107.904 23.832,103.803 23.832,95.453L23.832,42.914C23.832,34.613 27.885,30.463 36.088,30.463L42.387,30.463Z"/>
        </g>
        <g transform="matrix(1,0,0,1,-14.0668,-94.7696)">
            <path d="M84.037,81.439L76.957,81.439L76.957,66.84L55.815,66.84C52.795,66.84 50.657,65.942 49.418,64.137L49.418,30.463C54.045,30.473 56.667,31.169 59.819,34.418L80.082,55.121C83.452,58.588 84.037,60.883 84.037,66.303L84.037,81.439ZM56.645,60.297L75.639,60.297L54.692,38.861L54.692,58.344C54.692,59.711 55.278,60.297 56.645,60.297Z" style="fill:white;"/>
        </g>
        <g transform="matrix(1,0,0,1,-14.0668,-94.7696)">
            <path d="M42.387,30.463L49.321,30.463C49.353,30.463 49.386,30.463 49.418,30.463L49.418,64.137C48.574,62.906 48.149,61.252 48.149,59.174L48.149,37.494L42.387,37.494L42.387,30.463Z"/>
        </g>
        <g transform="matrix(1,0,0,1,-14.0668,-94.7696)">
            <path d="M49.418,30.463C54.045,30.473 56.667,31.169 59.819,34.418L80.082,55.121C83.452,58.588 84.037,60.883 84.037,66.303L84.037,81.439L76.957,81.439L76.957,66.84L55.815,66.84C52.795,66.84 50.657,65.942 49.418,64.137L49.418,30.463ZM56.645,60.297L75.639,60.297L54.692,38.861L54.692,58.344C54.692,59.711 55.278,60.297 56.645,60.297Z"/>
        </g>
        <g transform="matrix(1,0,0,1,-14.0668,-94.7696)">
            <path d="M49.418,64.137L49.418,75.922C49.418,79.438 51.323,81.439 54.985,81.439L76.957,81.439L76.957,88.471L54.643,88.471C46.44,88.471 42.387,84.369 42.387,76.02L42.387,37.494L48.149,37.494L48.149,59.174C48.149,61.252 48.574,62.906 49.418,64.137Z"/>
        </g>
        <g transform="matrix(1,0,0,1,-14.0668,-94.7696)">
            <path d="M84.037,88.471L84.037,81.439L89.946,81.439C93.608,81.439 95.512,79.438 95.512,75.922L95.512,43.842L78.52,43.842C73.93,43.842 71.635,41.547 71.635,36.908L71.635,18.061L55.034,18.061C51.323,18.061 49.418,20.063 49.418,23.578L49.418,30.463C49.386,30.463 49.353,30.463 49.321,30.463L42.387,30.463L42.387,23.48C42.387,15.18 46.44,11.029 54.643,11.029L68.901,11.029C73.539,11.029 77.104,12.152 80.082,15.229L98.393,33.93C101.518,37.152 102.592,40.522 102.592,45.844L102.592,76.02C102.592,84.32 98.491,88.471 90.287,88.471L84.037,88.471ZM77.934,35.834C77.934,37.055 78.422,37.543 79.643,37.543L93.803,37.543L77.934,21.283L77.934,35.834Z"/>
        </g>
        <g transform="matrix(1,0,0,1,-14.0668,-94.7696)">
            <rect x="76.957" y="81.439" width="7.08" height="7.031"/>
        </g>
    </g>
</svg>
